<svg width="241.94624023437498px" height="77.6px" xmlns="http://www.w3.org/2000/svg" viewBox="129.02687988281252 36.2 241.94624023437498 77.6" style="background: rgba(0, 0, 0, 0);" preserveAspectRatio="xMidYMid"><defs><filter id="editing-extrude-glow"><feFlood flood-color="#333333" result="flood-1"></feFlood><feMorphology operator="erode" radius="1" in="SourceAlpha" result="erode"></feMorphology><feComposite operator="in" in="flood-1" in2="erode" result="comp1"></feComposite><feConvolveMatrix order="3,3" divisor="1" in="comp1" result="convolve" kernelMatrix="0 0 0 1 1 1 0 0 0"></feConvolveMatrix><feOffset dx="-3" dy="0" in="convolve" result="extrude"></feOffset><feComposite operator="in" in="flood-1" in2="extrude" result="comp-extrude"></feComposite><feFlood flood-color="#000000" result="flood-2"></feFlood><feComposite operator="in" in="flood-2" in2="SourceAlpha" result="comp2"></feComposite><feMorphology operator="dilate" radius="1" in="comp2" result="dilate"></feMorphology><feOffset dx="-4.5" dy="0" in="dilate" result="offset"></feOffset><feGaussianBlur in="offset" stdDeviation="5.8" result="blur"></feGaussianBlur><feComponentTransfer in="blur" result="shadow"><feFuncA type="linear" slope="0.8" intercept="-0.2"></feFuncA></feComponentTransfer><feMerge><feMergeNode in="shadow"></feMergeNode><feMergeNode in="comp-extrude"></feMergeNode><feMergeNode in="SourceGraphic"></feMergeNode></feMerge></filter></defs><g filter="url(#editing-extrude-glow)"><g transform="translate(168.43990564346313, 88.31999969482422)"><path d="M1.19-3.60L1.19-3.60L1.19-3.60Q1.19-4.57 1.69-7.02L1.69-7.02L3.60-16.74L1.48-16.74L1.62-17.82L1.62-17.82Q5.94-19.12 10.12-22.28L10.12-22.28L11.84-22.28L10.98-18.36L13.79-18.36L13.46-16.74L10.69-16.74L8.86-7.02L8.86-7.02Q8.39-4.79 8.39-4.03L8.39-4.03L8.39-4.03Q8.39-2.30 9.90-1.94L9.90-1.94L9.90-1.94Q9.54-0.72 8.24 0L8.24 0L8.24 0Q6.95 0.72 5.11 0.72L5.11 0.72L5.11 0.72Q3.28 0.72 2.23-0.43L2.23-0.43L2.23-0.43Q1.19-1.58 1.19-3.60ZM31.72-4.00L31.72-4.00L31.72-4.00Q31.72-2.41 33.34-1.94L33.34-1.94L33.34-1.94Q32.94-0.61 31.39 0.11L31.39 0.11L31.39 0.11Q30.10 0.72 28.67 0.72L28.67 0.72L28.67 0.72Q27.25 0.72 26.51 0.34L26.51 0.34L26.51 0.34Q25.78-0.04 25.38-0.65L25.38-0.65L25.38-0.65Q24.73-1.58 24.73-3.35L24.73-3.35L24.73-3.35Q24.73-4.39 25.31-7.27L25.31-7.27L25.81-10.01L25.81-10.01Q26.42-13.14 26.42-14.29L26.42-14.29L26.42-14.29Q26.42-16.31 25.31-16.31L25.31-16.31L25.31-16.31Q23.90-16.31 23.00-14.26L23.00-14.26L23.00-14.26Q22.64-13.46 22.39-12.28L22.39-12.28L19.94 0L12.71 0.72L17.78-25.20L25.02-25.92L24.73-24.48L24.73-24.48Q23.72-18.94 22.86-17.06L22.86-17.06L22.86-17.06Q24.88-19.08 28.58-19.08L28.58-19.08L28.58-19.08Q32.51-19.08 33.23-16.49L33.23-16.49L33.23-16.49Q33.48-15.66 33.48-14.94L33.48-14.94L33.48-14.94Q33.48-14.22 33.43-13.66L33.43-13.66L33.43-13.66Q33.37-13.10 33.19-12.10L33.19-12.10L32.72-9.50L31.90-5.44L31.90-5.44Q31.72-4.61 31.72-4.00ZM50.83-6.08L50.83-6.08L50.83-6.08Q51.73-5.47 51.73-4.12L51.73-4.12L51.73-4.12Q51.73-2.77 51.05-1.91L51.05-1.91L51.05-1.91Q50.36-1.04 49.25-0.47L49.25-0.47L49.25-0.47Q46.94 0.72 44.46 0.72L44.46 0.72L44.46 0.72Q41.98 0.72 40.52 0.18L40.52 0.18L40.52 0.18Q39.06-0.36 38.09-1.37L38.09-1.37L38.09-1.37Q36.18-3.28 36.18-6.77L36.18-6.77L36.18-6.77Q36.18-12.20 39.13-15.52L39.13-15.52L39.13-15.52Q42.30-19.08 47.81-19.08L47.81-19.08L47.81-19.08Q51.23-19.08 52.92-17.64L52.92-17.64L52.92-17.64Q54.18-16.56 54.18-14.80L54.18-14.80L54.18-14.80Q54.18-8.46 43.24-8.46L43.24-8.46L43.24-8.46Q43.09-7.52 43.09-6.73L43.09-6.73L43.09-6.73Q43.09-5.08 43.83-4.45L43.83-4.45L43.83-4.45Q44.57-3.82 45.94-3.82L45.94-3.82L45.94-3.82Q47.30-3.82 48.76-4.45L48.76-4.45L48.76-4.45Q50.22-5.08 50.83-6.08ZM43.49-10.01L43.49-10.01L43.49-10.01Q46.04-10.01 47.52-11.59L47.52-11.59L47.52-11.59Q49.00-13.10 49.00-15.52L49.00-15.52L49.00-15.52Q49.00-16.34 48.69-16.79L48.69-16.79L48.69-16.79Q48.38-17.24 47.77-17.24L47.77-17.24L47.77-17.24Q47.16-17.24 46.64-17.01L46.64-17.01L46.64-17.01Q46.12-16.78 45.58-15.98L45.58-15.98L45.58-15.98Q44.24-14.18 43.49-10.01ZM80.50-14.98L80.50-14.98L80.50-14.98Q80.50-13.46 79.24-12.53L79.24-12.53L79.24-12.53Q77.98-11.59 75.92-11.59L75.92-11.59L75.92-11.59Q75.06-11.59 74.56-11.84L74.56-11.84L74.56-11.84Q74.95-12.78 75.08-13.95L75.08-13.95L75.08-13.95Q75.20-15.12 75.20-15.44L75.20-15.44L75.20-15.44Q75.20-16.96 74.16-16.96L74.16-16.96L74.16-16.96Q73.44-16.96 72.63-16.06L72.63-16.06L72.63-16.06Q71.82-15.16 71.14-13.75L71.14-13.75L71.14-13.75Q69.62-10.51 69.62-7.24L69.62-7.24L69.62-7.24Q69.62-5.44 70.31-4.63L70.31-4.63L70.31-4.63Q70.99-3.82 72.50-3.82L72.50-3.82L72.50-3.82Q74.59-3.82 76.25-5.54L76.25-5.54L76.25-5.54Q76.72-6.08 76.97-6.70L76.97-6.70L76.97-6.70Q78.34-5.98 78.34-4.00L78.34-4.00L78.34-4.00Q78.34-1.98 76.10-0.65L76.10-0.65L76.10-0.65Q73.80 0.72 70.13 0.72L70.13 0.72L70.13 0.72Q62.82 0.72 62.82-7.02L62.82-7.02L62.82-7.02Q62.82-12.67 66.02-15.91L66.02-15.91L66.02-15.91Q69.12-19.08 74.81-19.08L74.81-19.08L74.81-19.08Q80.50-19.08 80.50-14.98ZM89.32 0.72L89.32 0.72L89.32 0.72Q81.40 0.72 81.40-6.73L81.40-6.73L81.40-6.73Q81.40-12.02 84.31-15.44L84.31-15.44L84.31-15.44Q87.41-19.08 92.77-19.08L92.77-19.08L92.77-19.08Q96.66-19.08 98.64-17.28L98.64-17.28L98.64-17.28Q100.62-15.48 100.62-11.70L100.62-11.70L100.62-11.70Q100.62-5.94 97.52-2.59L97.52-2.59L97.52-2.59Q94.50 0.72 89.32 0.72ZM90.25-14.94L90.25-14.94L90.25-14.94Q89.82-13.97 89.48-12.51L89.48-12.51L89.48-12.51Q89.14-11.05 88.70-8.75L88.70-8.75L88.70-8.75Q88.27-6.44 88.27-3.60L88.27-3.60L88.27-3.60Q88.27-2.66 88.58-2.05L88.58-2.05L88.58-2.05Q88.88-1.44 89.71-1.44L89.71-1.44L89.71-1.44Q90.54-1.44 91.06-1.84L91.06-1.84L91.06-1.84Q91.58-2.23 91.98-3.17L91.98-3.17L91.98-3.17Q92.70-4.82 93.28-7.90L93.28-7.90L93.28-7.90Q93.85-10.98 93.91-12.31L93.91-12.31L93.91-12.31Q93.96-13.64 93.96-14.63L93.96-14.63L93.96-14.63Q93.96-15.62 93.67-16.27L93.67-16.27L93.67-16.27Q93.38-16.92 92.57-16.92L92.57-16.92L92.57-16.92Q91.76-16.92 91.22-16.42L91.22-16.42L91.22-16.42Q90.68-15.91 90.25-14.94ZM114.08-19.08L114.08-19.08L114.08-19.08Q115.38-19.08 116.39-18.79L116.39-18.79L116.39-18.79Q116.42-18.94 116.50-19.33L116.50-19.33L116.68-20.45L116.68-20.45Q116.82-21.17 117.04-22.36L117.04-22.36L117.61-25.20L124.78-25.92L120.78-5.04L120.78-5.04Q120.74-4.82 120.74-4.46L120.74-4.46L120.74-3.89L120.74-3.89Q120.74-3.10 121.14-2.50L121.14-2.50L121.14-2.50Q121.54-1.91 122.18-1.91L122.18-1.91L122.18-1.91Q121.46-0.22 119.27 0.50L119.27 0.50L119.27 0.50Q118.51 0.72 117.45 0.72L117.45 0.72L117.45 0.72Q116.39 0.72 115.42 0.16L115.42 0.16L115.42 0.16Q114.44-0.40 114.16-1.33L114.16-1.33L114.16-1.33Q113.58-0.40 112.43 0.16L112.43 0.16L112.43 0.16Q111.28 0.72 109.60 0.72L109.60 0.72L109.60 0.72Q107.93 0.72 106.54 0.29L106.54 0.29L106.54 0.29Q105.16-0.14 104.29-1.08L104.29-1.08L104.29-1.08Q102.71-2.92 102.71-7.09L102.71-7.09L102.71-7.09Q102.71-12.49 105.88-15.77L105.88-15.77L105.88-15.77Q109.04-19.08 114.08-19.08ZM113.83-16.92L113.83-16.92L113.83-16.92Q112.50-16.92 111.78-15.48L111.78-15.48L111.78-15.48Q111.06-14.04 110.32-10.48L110.32-10.48L110.32-10.48Q109.58-6.91 109.58-3.71L109.58-3.71L109.58-3.71Q109.58-1.51 110.88-1.51L110.88-1.51L110.88-1.51Q112.03-1.51 112.84-2.66L112.84-2.66L112.84-2.66Q113.65-3.82 113.98-5.72L113.98-5.72L115.92-16.27L115.92-16.27Q115.16-16.92 113.83-16.92ZM139.82-6.08L139.82-6.08L139.82-6.08Q140.72-5.47 140.72-4.12L140.72-4.12L140.72-4.12Q140.72-2.77 140.04-1.91L140.04-1.91L140.04-1.91Q139.36-1.04 138.24-0.47L138.24-0.47L138.24-0.47Q135.94 0.72 133.45 0.72L133.45 0.72L133.45 0.72Q130.97 0.72 129.51 0.18L129.51 0.18L129.51 0.18Q128.05-0.36 127.08-1.37L127.08-1.37L127.08-1.37Q125.17-3.28 125.17-6.77L125.17-6.77L125.17-6.77Q125.17-12.20 128.12-15.52L128.12-15.52L128.12-15.52Q131.29-19.08 136.80-19.08L136.80-19.08L136.80-19.08Q140.22-19.08 141.91-17.64L141.91-17.64L141.91-17.64Q143.17-16.56 143.17-14.80L143.17-14.80L143.17-14.80Q143.17-8.46 132.23-8.46L132.23-8.46L132.23-8.46Q132.08-7.52 132.08-6.73L132.08-6.73L132.08-6.73Q132.08-5.08 132.82-4.45L132.82-4.45L132.82-4.45Q133.56-3.82 134.93-3.82L134.93-3.82L134.93-3.82Q136.30-3.82 137.75-4.45L137.75-4.45L137.75-4.45Q139.21-5.08 139.82-6.08ZM132.48-10.01L132.48-10.01L132.48-10.01Q135.04-10.01 136.51-11.59L136.51-11.59L136.51-11.59Q137.99-13.10 137.99-15.52L137.99-15.52L137.99-15.52Q137.99-16.34 137.68-16.79L137.68-16.79L137.68-16.79Q137.38-17.24 136.76-17.24L136.76-17.24L136.76-17.24Q136.15-17.24 135.63-17.01L135.63-17.01L135.63-17.01Q135.11-16.78 134.57-15.98L134.57-15.98L134.57-15.98Q133.24-14.18 132.48-10.01ZM155.66-10.12L155.66-10.12L155.66-10.12Q156.96-12.42 156.96-14.76L156.96-14.76L156.96-14.76Q156.96-16.31 155.84-16.31L155.84-16.31L155.84-16.31Q154.98-16.31 154.08-14.83L154.08-14.83L154.08-14.83Q153.14-13.36 152.86-11.45L152.86-11.45L150.98 0L143.53 0.72L147.20-18.36L153.14-19.08L152.50-15.44L152.50-15.44Q154.26-19.08 158.22-19.08L158.22-19.08L158.22-19.08Q160.31-19.08 161.44-18.00L161.44-18.00L161.44-18.00Q162.58-16.92 162.58-14.71L162.58-14.71L162.58-14.71Q162.58-12.49 161.12-11.09L161.12-11.09L161.12-11.09Q159.66-9.68 157.18-9.68L157.18-9.68L157.18-9.68Q156.10-9.68 155.66-10.12Z" fill="#eb6c6c"></path></g></g><style>text {
  font-size: 64px;
  font-family: Arial Black;
  dominant-baseline: central;
  text-anchor: middle;
}</style></svg>